<svg xmlns="http://www.w3.org/2000/svg" width="640" height="480" viewBox="0 0 640 480" role="img" aria-label="Fábrica de generación de backends">
  <defs>
    <radialGradient id="glow" cx="50%" cy="8%" r="72%">
      <stop offset="0%" stop-color="#f0803e" stop-opacity="0.16"/>
      <stop offset="60%" stop-color="#0d1117" stop-opacity="0"/>
    </radialGradient>
  </defs>
  <rect width="640" height="480" fill="#0d1117"/>
  <rect width="640" height="480" fill="url(#glow)"/>

  <!-- símbolo del logo (sin wordmark), colores originales ember + steel -->
  <g transform="translate(200,96) scale(4)">
    <path d="M30 3 L57 18.5 L57 50.5 L30 66 L3 50.5 L3 18.5 Z" fill="none" stroke="#f0803e" stroke-width="5" stroke-linejoin="round"/>
    <path d="M15 22 L45 22 L47 26 L47 30 L36 30 L36 40 L39 40 L39 42.5 L44 42.5 L44 48 L16 48 L16 42.5 L21 42.5 L21 40 L24 40 L24 30 L13 30 L13 26 Z" fill="#7fa3c4"/>
  </g>

  <!-- subtítulo genérico, sin marca -->
  <text x="320" y="404" text-anchor="middle" font-family="ui-monospace, SFMono-Regular, Menlo, Consolas, monospace" font-size="24" font-weight="700" fill="#f0803e" letter-spacing="0.5">SQL → Java</text>
  <text x="320" y="440" text-anchor="middle" font-family="ui-monospace, SFMono-Regular, Menlo, Consolas, monospace" font-size="17" font-weight="500" fill="#8b95a3" letter-spacing="1.5">Hexagonal · 100% tested</text>
</svg>
